<?xml version="1.0" encoding="UTF-8"?>
<svg width="174px" height="66px" viewBox="0 0 174 66" version="1.1" xmlns="http://www.w3.org/2000/svg" xmlns:xlink="http://www.w3.org/1999/xlink">
    <title>TCM</title>
    <defs>
        <path d="M170.883275,0.0671430489 C172.227206,0.287303101 173.137565,1.54847554 172.914403,2.88350359 C172.867645,3.16556168 172.771296,3.43777235 172.629606,3.68677126 L150.302783,42.9870991 C147.611379,42.5460756 145.790661,40.0223239 146.234859,37.3501577 C146.329083,36.7839313 146.52249,36.2388066 146.806579,35.739402 L165.671912,2.54447118 C166.711917,0.714258858 168.794762,-0.275406298 170.883275,0.0671430489 Z M153.970063,0.0671430489 C155.314703,0.287303101 156.225062,1.54847554 156.0019,2.88420698 C155.955142,3.16626506 155.858793,3.43847574 155.717103,3.68747465 L133.388863,42.9870991 C130.698167,42.5453722 128.877449,40.0223239 129.321648,37.3508611 C129.415872,36.7846347 129.609279,36.2402134 129.893367,35.7408088 L148.757992,2.54517457 C149.797997,0.714258858 151.880842,-0.275406298 153.970063,0.0671430489 Z M51.5420145,2.86580671 C53.1588648,2.86580671 54.637404,3.05307658 55.9781225,3.42711664 L56.2850727,3.51674879 C57.70548,3.91680044 58.9679282,4.49659449 60.0681316,5.25737914 C61.2044574,5.98134157 62.1822119,6.86881965 63.0001706,7.91731695 C63.8518027,8.93148846 64.5809859,10.0555025 65.1840468,11.2862387 L61.3827707,13.0745834 C59.7048704,13.8639659 57.7109132,13.5107381 56.4072172,12.1931677 C56.1170672,11.8999299 55.8451281,11.6700164 55.5913997,11.5034274 C54.5267065,10.779465 53.1399727,10.4162355 51.4348717,10.4162355 C50.0499746,10.4162355 48.806506,10.7257919 47.7063026,11.3399117 C46.6036502,11.9203299 45.6803855,12.7541349 44.9340594,13.8388303 C44.1883456,14.889824 43.6189582,16.1573824 43.2289585,17.6421295 C42.837122,19.0900543 42.6430405,20.7014948 42.6430405,22.476451 C42.6430405,24.1783868 42.837122,25.7723523 43.2289585,27.2570994 C43.6189582,28.7050243 44.1883456,29.9732067 44.9340594,31.0603986 C45.7165079,32.145094 46.6563033,32.9982463 47.7589556,33.6129902 C48.859159,34.2296065 50.1026276,34.5366664 51.4899737,34.5366664 C53.1950747,34.5366664 54.5793595,34.1565862 55.6465017,33.3958015 C55.9264535,33.2021086 56.2522418,32.9028305 56.6238666,32.4979673 C58.0327018,30.9631246 60.3303337,30.6345729 62.1138055,31.7129292 L65.0787407,33.5056441 C63.7991497,36.2211273 62.0224161,38.3399656 59.7479277,39.8609108 C57.5113985,41.3456579 54.6871146,42.0870953 51.2744636,42.0870953 C48.8230366,42.0870953 46.6036502,41.6333705 44.6138556,40.7290416 C42.6240609,39.7878905 40.9024293,38.466659 39.4458996,36.7628509 C38.0248801,35.0609151 36.92284,33.0157212 36.1403915,30.6266452 C35.3585552,28.1982506 34.9685555,25.4821433 34.9685555,22.476451 C34.9685555,19.5799772 35.3775348,16.9350179 36.1930445,14.5459419 C37.0110032,12.1200437 38.147329,10.0555025 39.6056954,8.35356673 C41.0622251,6.6154328 42.8034485,5.27422999 44.8269166,4.33370294 C46.8522215,3.35572956 49.0911997,2.86580671 51.5420145,2.86580671 Z M72.0238593,3.43896805 C74.2342026,3.43896805 76.2398594,4.72476928 77.1509596,6.72588724 L84.3544478,19.6805343 C84.8554751,20.5815744 85.9967156,20.9084129 86.9034798,20.4105484 C87.2192793,20.2371568 87.478055,19.9769434 87.6487865,19.661101 L94.6054858,6.79165067 C95.5011081,4.75513196 97.5254093,3.43896805 99.7620162,3.43896805 L103.45891,3.43896805 L103.45891,41.2960379 L98.4753437,41.2960379 C97.0940402,41.2960379 95.9742724,40.1833389 95.9742724,38.8107551 L95.9742724,25.4498749 C96.0080589,24.6564484 96.0271023,23.8456249 96.0271023,23.0180257 L96.0271023,20.6905584 L96.0589905,19.9754692 L96.0782687,19.2828903 C96.0793838,19.2055403 96.0799321,19.1342066 96.0799321,19.0689114 L95.8331751,19.6816561 C95.4954392,20.4629442 92.974894,26.0239858 88.2715396,36.3647809 C87.702643,37.6155438 86.2210784,38.1712228 84.9623673,37.6059224 C84.4151247,37.36015 83.9751464,36.9269195 83.7228306,36.3853961 L75.6544398,19.0689114 L75.6544398,20.6905584 C75.6906835,21.4112904 75.7072696,22.1879413 75.7072696,23.0180257 L75.7072696,25.4498749 L75.7374386,26.1949305 L75.7512313,26.6380591 C75.7586737,26.919237 75.7625567,27.1719688 75.7625567,27.3964727 L75.7625567,38.8107551 C75.7625567,40.1833389 74.6427889,41.2960379 73.2614854,41.2960379 L68.4364087,41.2960379 L68.4364087,3.43896805 L72.0238593,3.43896805 Z M29.8754139,3.43896805 L29.8754139,8.41698945 C29.8754139,9.78957322 28.7414297,10.9022722 27.3425893,10.9022722 L18.7968391,10.9022722 L18.7968391,38.1894344 C18.7968391,39.9051641 17.3793588,41.2960379 15.6308083,41.2960379 L11.0818553,41.2960379 L11.0818553,10.9022722 L2.5361051,10.9022722 C1.1372647,10.9022722 0.00328049156,9.78957322 0.00328049156,8.41698945 L0.00328049156,3.43896805 L29.8754139,3.43896805 Z M118.619074,28.0110105 C119.281476,28.0110105 119.90137,28.1509844 120.487967,28.4253052 C121.074564,28.6665669 121.59315,29.0133366 122.043725,29.4677244 C122.492883,29.9157818 122.842149,30.4355846 123.07948,31.0236159 C123.360026,31.6123506 123.496757,32.2327377 123.496757,32.8946246 C123.496757,33.5494777 123.360026,34.1705682 123.07948,34.7585995 C122.842149,35.3452241 122.492883,35.8664337 122.043725,36.314491 C121.59315,36.7674721 121.074564,37.1142418 120.487967,37.3555034 C119.90137,37.6298242 119.281476,37.7697982 118.619074,37.7697982 C117.964466,37.7697982 117.342446,37.6298242 116.755849,37.3555034 C116.162168,37.1142418 115.645707,36.7674721 115.202217,36.314491 C114.750934,35.8664337 114.383248,35.3452241 114.110494,34.7585995 C113.863954,34.1705682 113.748476,33.5494777 113.748476,32.8946246 C113.748476,32.2327377 113.863954,31.6123506 114.110494,31.0236159 C114.383248,30.4355846 114.750934,29.9157818 115.202217,29.4677244 C115.645707,29.0133366 116.162168,28.6665669 116.755849,28.4253052 C117.342446,28.1509844 117.964466,28.0110105 118.619074,28.0110105 Z M118.619074,9.37604464 C119.281476,9.37604464 119.90137,9.50898473 120.487967,9.78963605 C121.074564,10.0308977 121.59315,10.3783708 122.043725,10.8250213 C122.417787,11.2034434 122.722421,11.6240687 122.95125,12.0981514 L123.07948,12.3886501 C123.360026,12.9752746 123.496757,13.5977719 123.496757,14.2512182 C123.496757,14.9131051 123.360026,15.5334922 123.07948,16.1222269 C122.842149,16.7102583 122.492883,17.2314678 122.043725,17.6781184 C121.59315,18.1325063 121.074564,18.4933437 120.487967,18.773995 C119.90137,19.0152566 119.281476,19.1348324 118.619074,19.1348324 C117.964466,19.1348324 117.342446,19.0152566 116.755849,18.773995 C116.162168,18.4933437 115.645707,18.1325063 115.202217,17.6781184 C114.750934,17.2314678 114.383248,16.7102583 114.110494,16.1222269 C113.863954,15.5334922 113.748476,14.9131051 113.748476,14.2512182 C113.748476,13.5977719 113.863954,12.9752746 114.110494,12.3886501 C114.383248,11.7942883 114.750934,11.2794092 115.202217,10.8250213 C115.645707,10.3783708 116.162168,10.0308977 116.755849,9.78963605 C117.342446,9.50898473 117.964466,9.37604464 118.619074,9.37604464 Z" id="path-1"></path>
    </defs>
    <g id="Page-1" stroke="none" stroke-width="1" fill="none" fill-rule="evenodd">
        <g id="HP---TCM-v0.1" transform="translate(-39.000000, -35.000000)">
            <g id="TCM" transform="translate(39.000000, 35.000000)">
                <g id="vert" transform="translate(14.000000, 3.000000)" fill="#00ECAE">
                    <path d="M157.913357,0.0671430489 C159.248553,0.287303101 160.152996,1.54847554 159.931284,2.88350359 C159.88483,3.16556168 159.789107,3.43777235 159.648338,3.68677126 L146.524353,26.938 L138.962353,26.938 L152.735864,2.54447118 C153.76911,0.714258858 155.838418,-0.275406298 157.913357,0.0671430489 Z" id="Combined-Shape"></path>
                    <path d="M140.397778,8.02425879 L120.662631,42.9871023 C117.989423,42.5453722 116.180538,40.0223239 116.62185,37.3508611 C116.715461,36.7846347 116.907611,36.2402134 117.189854,35.7408088 L132.837913,8.02425879 L140.397778,8.02425879 Z" id="Path"></path>
                    <path d="M110.834817,32.8946246 C110.834817,33.5494777 110.698974,34.1705682 110.420251,34.7585995 C110.184463,35.3452241 109.837467,35.8664337 109.391228,36.314491 C108.943582,36.7674721 108.428366,37.1142418 107.845582,37.3555034 C107.262797,37.6298242 106.646932,37.7697982 105.988835,37.7697982 C105.338481,37.7697982 104.720504,37.6298242 104.13772,37.3555034 C103.547896,37.1142418 103.034793,36.7674721 102.594185,36.314491 C102.145835,35.8664337 101.780538,35.3452241 101.509558,34.7585995 C101.264619,34.1705682 101.149892,33.5494777 101.149892,32.8946246 C101.149892,32.4170839 101.209612,31.9611453 101.334867,31.5231108 L110.62004,31.5231108 C110.764106,31.9611453 110.834817,32.4170839 110.834817,32.8946246 Z" id="Combined-Shape"></path>
                    <path d="M105.988835,9.37604464 C106.646932,9.37604464 107.262797,9.50898473 107.845582,9.78963605 C108.002256,9.85449602 108.154046,9.92703223 108.300953,10.007108 L105.684951,19.1259836 C105.145321,19.0942901 104.629015,18.977382 104.13772,18.773995 C103.547896,18.4933437 103.034793,18.1325063 102.594185,17.6781184 C102.145835,17.2314678 101.780538,16.7102583 101.509558,16.1222269 C101.264619,15.5334922 101.149892,14.9131051 101.149892,14.2512182 C101.149892,13.5977719 101.264619,12.9752746 101.509558,12.3886501 C101.780538,11.7942883 102.145835,11.2794092 102.594185,10.8250213 C103.034793,10.3783708 103.547896,10.0308977 104.13772,9.78963605 C104.720504,9.50898473 105.338481,9.37604464 105.988835,9.37604464 Z" id="Combined-Shape"></path>
                    <path d="M91.8273951,3.19265078 L91.8273951,41.0497206 L86.8762183,41.0497206 C85.5038923,41.0497206 84.3914022,39.9370216 84.3914022,38.5644378 L84.3914022,25.2035577 C84.4249691,24.4101311 84.4438887,23.5993076 84.4438887,22.7717085 L84.4438887,20.4442411 L84.4755697,19.7291519 L84.4947226,19.0365731 L84.4963752,18.8225941 L84.4963752,18.8225941 L84.2512219,19.4353389 L83.6755383,20.7329745 C82.6490457,23.0275551 80.3367767,28.1560514 76.7387315,36.1184636 C76.1735323,37.3692266 74.7015967,37.9249055 73.4510664,37.3596052 C72.9073804,37.1138327 72.4702616,36.6806022 72.2195857,36.1390789 L64.2036336,18.8225941 L64.2036336,4.51203917 C64.8278001,5.03893793 65.3404119,5.70577615 65.6904271,6.47956997 L72.8470979,19.4342171 C73.3448689,20.3352572 74.4786922,20.6620956 75.3795631,20.1642311 C75.6933101,19.9908395 75.9504039,19.7306261 76.1200258,19.4147837 L83.0315117,6.5453334 C83.9213131,4.50881469 85.9324578,3.19265078 88.1545284,3.19265078 L91.8273951,3.19265078 Z" id="Path"></path>
                    <path d="M39.8153055,2.62470009 L39.8153055,10.17581 C38.631923,10.2189067 37.5560608,10.4983326 36.5889385,11.0107506 L36.4371388,11.0935945 C35.3416528,11.6740126 34.4243886,12.5078176 33.6829131,13.592513 C32.9420459,14.6435068 32.3763591,15.9110651 31.9888941,17.3958122 C31.5996042,18.8437371 31.4067841,20.4551776 31.4067841,22.2301337 C31.4067841,23.9320695 31.5996042,25.5260351 31.9888941,27.0107822 C32.3763591,28.458707 32.9420459,29.7268895 33.6829131,30.8140813 C34.4602763,31.8987767 35.3939636,32.751929 36.4894496,33.366673 C37.4808102,33.9259223 38.5892529,34.2305351 39.8153055,34.2823739 L39.8151129,41.8395086 L39.7309839,41.8395086 C37.3948197,41.8089508 35.2734852,41.3558695 33.3647904,40.4827243 C31.3879279,39.5415732 29.6774857,38.2203418 28.2304223,36.5165336 C26.8186384,34.8145978 25.7237607,32.769404 24.9463976,30.380328 C24.1696427,27.9519333 23.7821776,25.235826 23.7821776,22.2301337 C23.7821776,19.3336599 24.1884989,16.6887006 24.9987084,14.2996246 C25.782328,11.9603656 26.8600563,9.9571134 28.2351657,8.29098718 L28.3891796,8.10724945 C29.7845621,6.43119174 31.4429456,5.12421921 33.3621487,4.18968945 L33.5764667,4.08738567 C35.4687976,3.16764474 37.5488852,2.67956375 39.8153055,2.62470009 Z" id="Path"></path>
                    <path d="M0.0507058397,3.19255486 L18.7221378,3.19265078 L18.7221378,8.17067218 C18.7221378,9.54325595 17.5955237,10.6559549 16.2057747,10.6559549 L7.71556557,10.6559549 L7.71556557,37.9431171 C7.71556557,39.6588469 6.3072979,41.0497206 4.57011169,41.0497206 L0.0507235463,41.0497206 L0.0507058397,3.19255486 Z" id="Combined-Shape"></path>
                </g>
                <g id="Rayure">
                    <mask id="mask-2" fill="white">
                        <use xlink:href="#path-1"></use>
                    </mask>
                    <use id="Combined-Shape" fill="#FFFFFF" opacity="0" xlink:href="#path-1"></use>
                    <path d="M100.328874,-1.6768518 L100.843913,-0.790767165 L3.9984564,54.7482827 L3.48341713,53.8621981 L100.328874,-1.6768518 Z M96.7682185,-1.6768518 L97.2832577,-0.790767165 L0.4378011,54.7482827 L-0.0772381676,53.8621981 L96.7682185,-1.6768518 Z M93.2075632,-1.6768518 L93.7226024,-0.790767165 L-3.1228542,54.7482827 L-3.63789347,53.8621981 L93.2075632,-1.6768518 Z M89.6469079,-1.6768518 L90.1619471,-0.790767165 L-6.6835095,54.7482827 L-7.19854877,53.8621981 L89.6469079,-1.6768518 Z M86.0863899,-1.6768518 L86.6014292,-0.790767165 L-10.2440275,54.7482827 L-10.7590667,53.8621981 L86.0863899,-1.6768518 Z M82.5257346,-1.6768518 L83.0407739,-0.790767165 L-13.8046828,54.7482827 L-14.319722,53.8621981 L82.5257346,-1.6768518 Z M78.9650793,-1.6768518 L79.4801186,-0.790767165 L-17.3653381,54.7482827 L-17.8803773,53.8621981 L78.9650793,-1.6768518 Z M75.404424,-1.6768518 L75.9194633,-0.790767165 L-20.9259934,54.7482827 L-21.4410326,53.8621981 L75.404424,-1.6768518 Z M71.8439404,-1.6768518 L72.3589797,-0.790767165 L-24.486477,54.7482827 L-25.0015162,53.8621981 L71.8439404,-1.6768518 Z M68.2832508,-1.6768518 L68.79829,-0.790767165 L-28.0471666,54.7482827 L-28.5622059,53.8621981 L68.2832508,-1.6768518 Z M64.7225955,-1.6768518 L65.2376347,-0.790767165 L-31.6078219,54.7482827 L-32.1228612,53.8621981 L64.7225955,-1.6768518 Z M61.1619402,-1.6768518 L61.6769794,-0.790767165 L-35.1684772,54.7482827 L-35.6835165,53.8621981 L61.1619402,-1.6768518 Z M57.6014565,-1.6768518 L58.1164958,-0.790767165 L-38.7289608,54.7482827 L-39.2440001,53.8621981 L57.6014565,-1.6768518 Z M54.0408012,-1.6768518 L54.5558405,-0.790767165 L-42.2896161,54.7482827 L-42.8046554,53.8621981 L54.0408012,-1.6768518 Z M50.4801116,-1.6768518 L50.9951509,-0.790767165 L-45.8503058,54.7482827 L-46.365345,53.8621981 L50.4801116,-1.6768518 Z M46.9194563,-1.6768518 L47.4344956,-0.790767165 L-49.4109611,54.7482827 L-49.9260003,53.8621981 L46.9194563,-1.6768518 Z M43.3604504,-1.6768518 L43.8754896,-0.790767165 L-52.969967,54.7482827 L-53.4850063,53.8621981 L43.3604504,-1.6768518 Z M39.7998294,-1.6768518 L40.3148687,-0.790767165 L-56.530588,54.7482827 L-57.0456272,53.8621981 L39.7998294,-1.6768518 Z M36.2392084,-1.6768518 L36.7542477,-0.790767165 L-60.0912089,54.7482827 L-60.6062482,53.8621981 L36.2392084,-1.6768518 Z M32.6785875,-1.6768518 L33.1936267,-0.790767165 L-63.6518299,54.7482827 L-64.1668692,53.8621981 L32.6785875,-1.6768518 Z M29.1179665,-1.6768518 L29.6330058,-0.790767165 L-67.2124509,54.7482827 L-67.7274901,53.8621981 L29.1179665,-1.6768518 Z M25.5573455,-1.6768518 L26.0723848,-0.790767165 L-70.7730718,54.7482827 L-71.2881111,53.8621981 L25.5573455,-1.6768518 Z M21.9967246,-1.6768518 L22.5117638,-0.790767165 L-74.3336928,54.7482827 L-74.8487321,53.8621981 L21.9967246,-1.6768518 Z M18.4361036,-1.6768518 L18.9511429,-0.790767165 L-77.8943137,54.7482827 L-78.409353,53.8621981 L18.4361036,-1.6768518 Z M14.8754827,-1.6768518 L15.3905219,-0.790767165 L-81.4549347,54.7482827 L-81.969974,53.8621981 L14.8754827,-1.6768518 Z M11.3148617,-1.6768518 L11.829901,-0.790767165 L-85.0155557,54.7482827 L-85.5305949,53.8621981 L11.3148617,-1.6768518 Z M7.75424073,-1.6768518 L8.26927999,-0.790767165 L-88.5761766,54.7482827 L-89.0912159,53.8621981 L7.75424073,-1.6768518 Z M189.345051,-1.6768518 L189.860091,-0.790767165 L93.0146341,54.7482827 L93.0127841,54.7461482 L93.0089255,54.7482827 L92.4938862,53.8621981 L189.339343,-1.6768518 L189.340784,-1.6738518 L189.345051,-1.6768518 Z M185.784431,-1.6768518 L186.29947,-0.790767165 L89.4540131,54.7482827 L89.4517841,54.7451482 L89.4482702,54.7482827 L88.9332309,53.8621981 L185.778688,-1.6768518 L185.779784,-1.6738518 L185.784431,-1.6768518 Z M182.22381,-1.6768518 L182.738849,-0.790767165 L85.8933922,54.7482827 L85.8907841,54.7451482 L85.8876149,54.7482827 L85.3725756,53.8621981 L182.218032,-1.6768518 L182.219784,-1.6738518 L182.22381,-1.6768518 Z M178.663189,-1.6768518 L179.178228,-0.790767165 L82.3327712,54.7482827 L82.3307841,54.7461482 L82.3269596,54.7482827 L81.8119203,53.8621981 L178.657377,-1.6768518 L178.658784,-1.6738518 L178.663189,-1.6768518 Z M175.102568,-1.6768518 L175.617607,-0.790767165 L78.7721503,54.7482827 L78.7697841,54.7451482 L78.7664416,54.7482827 L78.2514024,53.8621981 L175.096859,-1.6768518 L175.097784,-1.6748518 L175.102568,-1.6768518 Z M171.536204,-1.6768518 L172.051243,-0.790767165 L75.2057863,54.7482827 L74.6907471,53.8621981 L171.536204,-1.6768518 Z M167.975548,-1.6768518 L168.490588,-0.790767165 L71.645131,54.7482827 L71.1300918,53.8621981 L167.975548,-1.6768518 Z M164.414893,-1.6768518 L164.929932,-0.790767165 L68.0844757,54.7482827 L67.5694365,53.8621981 L164.414893,-1.6768518 Z M160.854409,-1.6768518 L161.369449,-0.790767165 L64.5239921,54.7482827 L64.0089529,53.8621981 L160.854409,-1.6768518 Z M157.29372,-1.6768518 L157.808759,-0.790767165 L60.9633025,54.7482827 L60.4482632,53.8621981 L157.29372,-1.6768518 Z M153.733065,-1.6768518 L154.248104,-0.790767165 L57.4026472,54.7482827 L56.8876079,53.8621981 L153.733065,-1.6768518 Z M150.172409,-1.6768518 L150.687449,-0.790767165 L53.8419919,54.7482827 L53.3269526,53.8621981 L150.172409,-1.6768518 Z M146.611926,-1.6768518 L147.126965,-0.790767165 L50.2815083,54.7482827 L49.766469,53.8621981 L146.611926,-1.6768518 Z M143.05127,-1.6768518 L143.56631,-0.790767165 L46.720853,54.7482827 L46.2058137,53.8621981 L143.05127,-1.6768518 Z M139.490581,-1.6768518 L140.00562,-0.790767165 L43.1601633,54.7482827 L42.6451241,53.8621981 L139.490581,-1.6768518 Z M135.929925,-1.6768518 L136.444965,-0.790767165 L39.599508,54.7482827 L39.0844688,53.8621981 L135.929925,-1.6768518 Z M132.370919,-1.6768518 L132.885959,-0.790767165 L36.0405021,54.7482827 L35.5254628,53.8621981 L132.370919,-1.6768518 Z M128.810298,-1.6768518 L129.325338,-0.790767165 L32.4798811,54.7482827 L31.9648419,53.8621981 L128.810298,-1.6768518 Z M125.249678,-1.6768518 L125.764717,-0.790767165 L28.9192602,54.7482827 L28.4042209,53.8621981 L125.249678,-1.6768518 Z M121.689057,-1.6768518 L122.204096,-0.790767165 L25.3586392,54.7482827 L24.8435999,53.8621981 L121.689057,-1.6768518 Z M118.128436,-1.6768518 L118.643475,-0.790767165 L21.7980182,54.7482827 L21.282979,53.8621981 L118.128436,-1.6768518 Z M114.567815,-1.6768518 L115.082854,-0.790767165 L18.2373973,54.7482827 L17.722358,53.8621981 L114.567815,-1.6768518 Z M111.007194,-1.6768518 L111.522233,-0.790767165 L14.6767763,54.7482827 L14.161737,53.8621981 L111.007194,-1.6768518 Z M107.446573,-1.6768518 L107.961612,-0.790767165 L11.1161554,54.7482827 L10.6011161,53.8621981 L107.446573,-1.6768518 Z M103.885952,-1.6768518 L104.400991,-0.790767165 L7.55553439,54.7482827 L7.04049512,53.8621981 L103.885952,-1.6768518 Z M260.555959,-1.6768518 L261.070998,-0.790767165 L164.225541,54.7482827 L163.710502,53.8621981 L260.555959,-1.6768518 Z M256.995303,-1.6768518 L257.510343,-0.790767165 L160.664886,54.7482827 L160.149847,53.8621981 L256.995303,-1.6768518 Z M253.434648,-1.6768518 L253.949687,-0.790767165 L157.104231,54.7482827 L156.589191,53.8621981 L253.434648,-1.6768518 Z M249.873993,-1.6768518 L250.389032,-0.790767165 L153.543575,54.7482827 L153.028536,53.8621981 L249.873993,-1.6768518 Z M246.313475,-1.6768518 L246.828514,-0.790767165 L149.983058,54.7482827 L149.468018,53.8621981 L246.313475,-1.6768518 Z M242.75282,-1.6768518 L243.267859,-0.790767165 L146.422402,54.7482827 L145.907363,53.8621981 L242.75282,-1.6768518 Z M239.192164,-1.6768518 L239.707204,-0.790767165 L142.861747,54.7482827 L142.346708,53.8621981 L239.192164,-1.6768518 Z M235.631509,-1.6768518 L236.146548,-0.790767165 L139.301092,54.7482827 L138.786052,53.8621981 L235.631509,-1.6768518 Z M232.071025,-1.6768518 L232.586065,-0.790767165 L135.740608,54.7482827 L135.225569,53.8621981 L232.071025,-1.6768518 Z M228.510336,-1.6768518 L229.025375,-0.790767165 L132.179918,54.7482827 L131.664879,53.8621981 L228.510336,-1.6768518 Z M224.94968,-1.6768518 L225.46472,-0.790767165 L128.619263,54.7482827 L128.104224,53.8621981 L224.94968,-1.6768518 Z M221.389025,-1.6768518 L221.904064,-0.790767165 L125.058608,54.7482827 L124.543568,53.8621981 L221.389025,-1.6768518 Z M217.828542,-1.6768518 L218.343581,-0.790767165 L121.498124,54.7482827 L120.983085,53.8621981 L217.828542,-1.6768518 Z M214.267886,-1.6768518 L214.782925,-0.790767165 L117.937469,54.7482827 L117.42243,53.8621981 L214.267886,-1.6768518 Z M210.707197,-1.6768518 L211.222236,-0.790767165 L114.376779,54.7482827 L113.86174,53.8621981 L210.707197,-1.6768518 Z M207.146541,-1.6768518 L207.661581,-0.790767165 L110.816124,54.7482827 L110.301085,53.8621981 L207.146541,-1.6768518 Z M203.587535,-1.6768518 L204.102575,-0.790767165 L107.257118,54.7482827 L106.742079,53.8621981 L203.587535,-1.6768518 Z M200.026914,-1.6768518 L200.541954,-0.790767165 L103.696497,54.7482827 L103.181458,53.8621981 L200.026914,-1.6768518 Z M196.466293,-1.6768518 L196.981333,-0.790767165 L100.135876,54.7482827 L99.6208368,53.8621981 L196.466293,-1.6768518 Z M192.905672,-1.6768518 L193.420712,-0.790767165 L96.5752551,54.7482827 L96.0602158,53.8621981 L192.905672,-1.6768518 Z" id="Combined-Shape" fill="#FFFFFF" mask="url(#mask-2)"></path>
                </g>
                <g id="White" transform="translate(12.000000, 0.000000)" fill="#FFFFFF">
                    <path d="M158.844216,0.0671430489 C160.17972,0.287303101 161.084371,1.54847554 160.862608,2.88350359 C160.816144,3.16556168 160.720398,3.43777235 160.579597,3.68677126 L144.86423,31.523 L137.30023,31.523 L153.665529,2.54447118 C154.699013,0.714258858 156.768799,-0.275406298 158.844216,0.0671430489 Z" id="Combined-Shape"></path>
                    <path d="M133.88189,21.2069697 L121.584901,42.9870991 C118.911077,42.5453722 117.101775,40.0223239 117.543188,37.3508611 C117.636822,36.7846347 117.829016,36.2402134 118.111323,35.7408088 L126.31789,21.2069697 L133.88189,21.2069697 Z" id="Combined-Shape"></path>
                    <path d="M106.65475,28.0181471 L106.654664,37.7621471 L106.630926,37.7612448 C106.081332,37.7270639 105.555825,37.5906356 105.05618,37.3555034 C104.466221,37.1142418 103.952999,36.7674721 103.512289,36.314491 C103.063836,35.8664337 102.698456,35.3452241 102.427412,34.7585995 C102.182417,34.1705682 102.067664,33.5494777 102.067664,32.8946246 C102.067664,32.2327377 102.182417,31.6123506 102.427412,31.0236159 C102.698456,30.4355846 103.063836,29.9157818 103.512289,29.4677244 C103.952999,29.0133366 104.466221,28.6665669 105.05618,28.4253052 C105.56304,28.1867777 106.096514,28.0498252 106.65475,28.0181471 Z" id="Combined-Shape"></path>
                    <path d="M111.752192,14.3282182 L111.754821,14.2512182 C111.754821,14.9131051 111.618948,15.5334922 111.34016,16.1222269 C111.104318,16.7102583 110.757241,17.2314678 110.3109,17.6781184 C109.86315,18.1325063 109.347816,18.4933437 108.764897,18.773995 C108.181978,19.0152566 107.565971,19.1348324 106.907723,19.1348324 C106.257219,19.1348324 105.639099,19.0152566 105.05618,18.773995 C104.466221,18.4933437 103.952999,18.1325063 103.512289,17.6781184 C103.063836,17.2314678 102.698456,16.7102583 102.427412,16.1222269 C102.192008,15.5565388 102.076848,14.9616279 102.068192,14.3287585 L111.752192,14.3282182 Z" id="Combined-Shape"></path>
                    <path d="M91.8426155,3.43896805 L91.8426155,41.2960379 L86.8902972,41.2960379 C85.5176547,41.2960379 84.4049081,40.1833389 84.4049081,38.8107551 L84.4049081,25.4498749 C84.4384828,24.6564484 84.4574067,23.8456249 84.4574067,23.0180257 L84.4574067,20.6905584 L84.489095,19.9754692 L84.5082524,19.2828903 L84.5099053,19.0689114 L84.2646955,19.6816561 L83.6888792,20.9792918 C82.6621499,23.2738723 80.3493479,28.4023687 76.7504731,36.3647809 C76.309797,37.3397545 75.3180381,37.8923776 74.3096589,37.8209268 L74.3102964,20.6345765 C74.6723717,20.669867 75.0485114,20.5997756 75.3909913,20.4105484 C75.7048107,20.2371568 75.9619638,19.9769434 76.1316248,19.661101 L83.0447041,6.79165067 C83.9347107,4.75513196 85.9463191,3.43896805 88.168902,3.43896805 L91.8426155,3.43896805 Z" id="Combined-Shape"></path>
                    <path d="M29.5283288,7.12444937 L29.6438357,7.01369732 L29.6438357,7.01369732 L29.8978707,6.77815403 L29.8978707,6.77815403 L30.0860058,6.61055555 L30.0860058,6.61055555 L30.3296822,6.40172712 L30.3296822,6.40172712 L30.3831935,6.35707522 C30.5298707,6.23526468 30.6786918,6.11645794 30.8296471,6.00066417 L31.1863634,5.73550556 L31.1863634,5.73550556 L31.4530185,5.54794921 L31.4530185,5.54794921 L31.6565394,5.41064257 L31.6565394,5.41064257 L31.9452194,5.22419288 L31.9452194,5.22419288 L32.2262038,5.05168516 L32.2262038,5.05168516 L32.4970314,4.89341917 L32.4970314,4.89341917 L32.7424699,4.75650306 L32.7424699,4.75650306 L33.0142057,4.61185805 L33.0142057,4.61185805 L33.3154486,4.45969513 L33.5782569,4.33370294 C33.7068293,4.27122652 33.8362683,4.21074188 33.9665734,4.15224952 L34.1815447,4.05789606 L34.4426738,3.94896182 L34.8439639,3.79335219 L34.8439639,3.79335219 L35.0888271,3.70521815 L35.0888271,3.70521815 L35.37738,3.60779612 L35.37738,3.60779612 L35.5975091,3.5380496 L35.5975091,3.5380496 L36.0024562,3.4198044 L36.0024562,3.4198044 L36.3382856,3.33134413 L36.3382856,3.33134413 L36.6267258,3.26211009 L36.6267258,3.26211009 L37.0394121,3.17356755 L37.0394121,3.17356755 L37.3629183,3.11257168 L37.3629183,3.11257168 L37.6675583,3.06169824 L37.6675583,3.06169824 L37.9861278,3.01513829 L37.9861278,3.01513829 L38.318328,2.97363366 L38.318328,2.97363366 L38.6406052,2.94007181 L38.6406052,2.94007181 L38.9630726,2.91293321 L38.9630726,2.91293321 L39.2954203,2.89154302 L39.2954203,2.89154302 L39.5261383,2.88053842 L39.5261383,2.88053842 L39.8185341,2.87101736 L39.8185341,2.87101736 C39.9618141,2.86754553 40.1061583,2.86580671 40.2512497,2.86580671 C41.857962,2.86580671 43.3272305,3.05307658 44.6595423,3.42711664 L44.964568,3.51674879 C46.376069,3.91680044 47.6306014,4.49659449 48.7239063,5.25737914 C49.8531071,5.98134157 50.8247308,6.86881965 51.6375607,7.91731695 C52.483853,8.93148846 53.208464,10.0555025 53.8077436,11.2862387 L50.0303023,13.0745834 C48.3629228,13.8639659 46.3814681,13.5107381 45.0859466,12.1931677 C44.7976159,11.8999299 44.5273818,11.6700164 44.2752444,11.5034274 C43.217227,10.779465 41.8391883,10.4162355 40.1447787,10.4162355 C39.9992481,10.4162355 39.855289,10.4196971 39.7129038,10.4266144 L39.5005065,10.4395814 L39.346391,10.4523693 L39.1094961,10.4777446 L38.8787225,10.5093525 L38.7271435,10.5339399 L38.4959332,10.5774919 L38.2840174,10.6240499 L38.2840174,10.6240499 L38.1717472,10.6513748 L38.0183235,10.6917807 L37.8003074,10.7554707 L37.7036505,10.7861339 L37.5762838,10.8288807 L37.3800644,10.9000918 L37.3800644,10.9000918 L37.2766855,10.9402978 L37.1220006,11.004031 L36.9344247,11.0872447 L36.8328616,11.1350998 L36.6987235,11.2014114 L36.5685032,11.2692634 L36.5685032,11.2692634 L36.4395885,11.3399117 C35.34385,11.9203299 34.4263743,12.7541349 33.6847279,13.8388303 C32.9436898,14.889824 32.3778726,16.1573824 31.9903182,17.6421295 L31.9080975,17.9621934 L31.9080975,17.9621934 L31.8248726,18.3205217 C31.7865317,18.4950412 31.75085,18.6717796 31.7178216,18.850737 L31.6702685,19.1208373 L31.617529,19.4555997 L31.5752817,19.7600393 L31.5309177,20.1302836 L31.5080029,20.3509338 L31.47704,20.6984211 L31.449528,21.087442 L31.449528,21.087442 L31.4293931,21.4730439 L31.4167054,21.8337082 L31.411954,22.0438018 C31.4093667,22.1869222 31.408074,22.3311386 31.408074,22.476451 C31.408074,24.1783868 31.6009386,25.7723523 31.9903182,27.2570994 C32.3778726,28.7050243 32.9436898,29.9732067 33.6847279,31.0603986 C34.4622702,32.145094 35.3961728,32.9982463 36.4919114,33.6129902 C37.4835006,34.1722396 38.5921988,34.4768524 39.8185341,34.5286911 L39.8183414,42.0858259 L39.734193,42.0858259 C37.3974902,42.0552681 35.2756666,41.6021868 33.3665317,40.7290416 C31.3892135,39.7878905 29.6783769,38.466659 28.2309799,36.7628509 C26.8188705,35.0609151 25.7237404,33.0157212 24.946198,30.6266452 C24.169264,28.1982506 23.7817097,25.4821433 23.7817097,22.476451 C23.7817097,21.8878063 23.7984953,21.3095497 23.832046,20.7417176 L23.8706536,20.1840296 L23.8706536,20.1840296 L23.895972,19.8864248 L23.895972,19.8864248 L23.9372199,19.4685429 L23.9372199,19.4685429 L23.9738473,19.144892 L23.9738473,19.144892 L24.0384988,18.6463043 L24.0384988,18.6463043 L24.1167666,18.127096 L24.1167666,18.127096 L24.1859395,17.7215223 L24.1859395,17.7215223 L24.2812068,17.2218 L24.2812068,17.2218 L24.3648683,16.8256319 L24.3648683,16.8256319 L24.4556398,16.4308352 L24.4556398,16.4308352 L24.5465588,16.0649667 L24.5465588,16.0649667 L24.6540441,15.6636591 L24.6540441,15.6636591 C24.759405,15.2849078 24.8742101,14.9124144 24.9985209,14.5459419 L25.1228186,14.1847675 C25.205815,13.9498983 25.291869,13.7185202 25.3809842,13.4906344 L25.504408,13.1820325 L25.504408,13.1820325 L25.6000342,12.9520821 L25.6000342,12.9520821 L25.6978592,12.7245131 C25.789582,12.5146174 25.8840969,12.307904 25.9814069,12.1043742 L26.1765125,11.707957 L26.1765125,11.707957 L26.3488512,11.3759205 L26.3488512,11.3759205 C26.4462168,11.1928234 26.5460399,11.0124948 26.6483136,10.8349529 L26.8621121,10.4737385 L26.8621121,10.4737385 L27.0502084,10.1714243 L27.0502084,10.1714243 L27.2445596,9.87303555 L27.2445596,9.87303555 L27.3798655,9.67311854 L27.3798655,9.67311854 L27.4866444,9.51963271 L27.4866444,9.51963271 L27.7203945,9.19606571 L27.7203945,9.19606571 L27.8788712,8.98583921 L27.8788712,8.98583921 L28.0429415,8.77549338 L28.0429415,8.77549338 L28.2357244,8.53730445 L28.2357244,8.53730445 L28.3897738,8.35356673 C28.751623,7.91903324 29.1311541,7.50930796 29.5283288,7.12444937 Z" id="Path"></path>
                    <path d="M7.71139329,10.9022722 L7.71139329,38.1894344 C7.71139329,39.9051641 6.30280093,41.2960379 4.56521419,41.2960379 L0.0447840715,41.2960379 L0.0447840715,10.9022722 L7.71139329,10.9022722 Z" id="Path"></path>
                </g>
                <path d="M10.4155107,65.8370474 L10.4155107,58.1406685 L12.8650183,58.1406685 L12.8650183,57.1629526 L7,57.1629526 L7,58.1406685 L9.46100769,58.1406685 L9.46100769,65.8370474 L10.4155107,65.8370474 Z M17.6030331,65.8370474 L17.6030331,61.8885794 L21.5590455,61.8885794 L21.5590455,65.8370474 L22.5250485,65.8370474 L22.5250485,57.1629526 L21.5590455,57.1629526 L21.5590455,60.9108635 L17.6030331,60.9108635 L17.6030331,57.1629526 L16.6485302,57.1629526 L16.6485302,65.8370474 L17.6030331,65.8370474 Z M31.9320779,65.8370474 L31.9320779,64.8593315 L27.8840653,64.8593315 L27.8840653,61.8760446 L30.8855746,61.8760446 L30.8855746,60.9233983 L27.8840653,60.9233983 L27.8840653,58.1406685 L31.8515777,58.1406685 L31.8515777,57.1629526 L26.9295623,57.1629526 L26.9295623,65.8370474 L31.9320779,65.8370474 Z M44.7431179,66 C45.9621218,66 46.9051247,65.4108635 47.5721268,64.1824513 L46.8591246,63.6183844 C46.3071228,64.6086351 45.6401208,65.0348189 44.7431179,65.0348189 C43.2481133,65.0348189 42.21311,63.8440111 42.21311,61.5 C42.21311,59.1810585 43.2481133,57.9777159 44.754618,57.9777159 C45.7666211,57.9777159 46.4221232,58.5292479 46.8936247,59.494429 L47.5951269,58.9178273 C47.1006253,57.8022284 46.1921225,57 44.754618,57 C42.7421117,57 41.2586071,58.5668524 41.2586071,61.5 C41.2586071,64.4582173 42.7536117,66 44.7431179,66 Z M54.6331489,66 C56.6341551,66 58.0486595,64.4582173 58.0486595,61.5125348 C58.0486595,58.5543175 56.6341551,57 54.6331489,57 C52.6551427,57 51.2521383,58.5543175 51.2521383,61.5125348 C51.2521383,64.4582173 52.6551427,66 54.6331489,66 Z M54.6331489,65.0348189 C53.1956444,65.0348189 52.2066413,63.8314763 52.2066413,61.5125348 C52.2066413,59.1810585 53.1956444,57.9777159 54.6331489,57.9777159 C56.0936534,57.9777159 57.0941565,59.1810585 57.0941565,61.5125348 C57.0941565,63.8314763 56.0936534,65.0348189 54.6331489,65.0348189 Z M64.5461798,65.8370474 C66.7886868,65.8370474 68.5826924,64.1573816 68.5826924,61.4749304 C68.5826924,58.8050139 66.8116869,57.1629526 64.5461798,57.1629526 L62.2576727,57.1629526 L62.2576727,65.8370474 L64.5461798,65.8370474 Z M64.5461798,64.8718663 L63.2236757,64.8718663 L63.2236757,58.1406685 L64.5461798,58.1406685 C66.2596852,58.1406685 67.6166894,59.3816156 67.6166894,61.4874652 C67.6166894,63.6058496 66.2481852,64.8718663 64.5461798,64.8718663 Z M73.7462086,65.8370474 L73.7462086,57.1629526 L72.7917056,57.1629526 L72.7917056,65.8370474 L73.7462086,65.8370474 Z M79.1167254,65.8370474 L79.1167254,59.0682451 L83.2797384,65.8370474 L84.1767412,65.8370474 L84.1767412,57.1629526 L83.2222382,57.1629526 L83.2222382,63.994429 L79.1167254,57.1629526 L78.1622224,57.1629526 L78.1622224,65.8370474 L79.1167254,65.8370474 Z M91.7552649,66 C93.7447711,66 94.8717746,64.4832869 94.8717746,62.2270195 L94.8717746,61.2743733 L91.9852656,61.2743733 L91.9852656,62.189415 L93.9517717,62.189415 C93.9517717,64.0571031 93.089269,65.0348189 91.7437648,65.0348189 C90.2602602,65.0348189 89.225257,63.8440111 89.225257,61.5125348 C89.225257,59.1935933 90.2602602,57.9777159 91.7667649,57.9777159 C92.7787681,57.9777159 93.4687702,58.5292479 93.9057716,59.494429 L94.6072738,58.9178273 C94.1127722,57.8022284 93.2042694,57 91.7667649,57 C89.7542586,57 88.270754,58.5793872 88.270754,61.5250696 C88.270754,64.4582173 89.7427586,66 91.7552649,66 Z M105.451808,65.8370474 L105.451808,59.6072423 L108.016316,65.8370474 L108.441817,65.8370474 L111.017825,59.6197772 L111.017825,65.8370474 L111.972328,65.8370474 L111.972328,57.1629526 L111.017825,57.1629526 L108.246316,64.0194986 L105.486308,57.1629526 L104.497305,57.1629526 L104.497305,65.8370474 L105.451808,65.8370474 Z M116.526342,65.8370474 L117.204844,63.8690808 L120.999856,63.8690808 L121.689858,65.8370474 L122.713362,65.8370474 L119.608352,57.1629526 L118.584849,57.1629526 L115.502839,65.8370474 L116.526342,65.8370474 Z M120.677855,62.9289694 L117.526845,62.9289694 L119.09085,58.3662953 L120.677855,62.9289694 Z M129.141882,66 C130.360886,66 131.303888,65.4108635 131.970891,64.1824513 L131.257888,63.6183844 C130.705887,64.6086351 130.038884,65.0348189 129.141882,65.0348189 C127.646877,65.0348189 126.611874,63.8440111 126.611874,61.5 C126.611874,59.1810585 127.646877,57.9777159 129.153382,57.9777159 C130.165385,57.9777159 130.820887,58.5292479 131.292388,59.494429 L131.993891,58.9178273 C131.499389,57.8022284 130.590886,57 129.153382,57 C127.140875,57 125.657371,58.5668524 125.657371,61.5 C125.657371,64.4582173 127.152375,66 129.141882,66 Z M136.984906,65.8370474 L136.984906,61.8885794 L140.940919,61.8885794 L140.940919,65.8370474 L141.906922,65.8370474 L141.906922,57.1629526 L140.940919,57.1629526 L140.940919,60.9108635 L136.984906,60.9108635 L136.984906,57.1629526 L136.030403,57.1629526 L136.030403,65.8370474 L136.984906,65.8370474 Z M147.265938,65.8370474 L147.265938,57.1629526 L146.311435,57.1629526 L146.311435,65.8370474 L147.265938,65.8370474 Z M152.636455,65.8370474 L152.636455,59.0682451 L156.799468,65.8370474 L157.696471,65.8370474 L157.696471,57.1629526 L156.741968,57.1629526 L156.741968,63.994429 L152.636455,57.1629526 L151.681952,57.1629526 L151.681952,65.8370474 L152.636455,65.8370474 Z M167,65.8370474 L167,64.8593315 L162.951987,64.8593315 L162.951987,61.8760446 L165.953497,61.8760446 L165.953497,60.9233983 L162.951987,60.9233983 L162.951987,58.1406685 L166.9195,58.1406685 L166.9195,57.1629526 L161.997484,57.1629526 L161.997484,65.8370474 L167,65.8370474 Z" id="THECODINGMACHINE" fill="#FFFFFF" fill-rule="nonzero"></path>
            </g>
        </g>
    </g>
</svg>